<mxfile host="app.diagrams.net" modified="2022-02-20T08:07:20.422Z" agent="5.0 (Windows NT 10.0; Win64; x64) AppleWebKit/537.36 (KHTML, like Gecko) Chrome/98.0.4758.102 Safari/537.36" etag="UBb3ti0vASi7KLTix7jZ" version="16.6.1" type="github">
  <diagram id="6a731a19-8d31-9384-78a2-239565b7b9f0" name="Page-1">
    <mxGraphModel dx="1422" dy="794" grid="1" gridSize="10" guides="1" tooltips="1" connect="1" arrows="1" fold="1" page="1" pageScale="1" pageWidth="1169" pageHeight="827" background="none" math="0" shadow="0">
      <root>
        <mxCell id="0" />
        <mxCell id="1" parent="0" />
        <mxCell id="2019" value="" style="rounded=1;whiteSpace=wrap;html=1;dashed=1;strokeColor=none;strokeWidth=2;fillColor=#E6E6E6;fontFamily=Verdana;fontSize=12;fontColor=#00BEF2" parent="1" vertex="1">
          <mxGeometry x="40" y="120" width="230" height="490" as="geometry" />
        </mxCell>
        <mxCell id="2021" value="" style="rounded=1;whiteSpace=wrap;html=1;dashed=1;strokeColor=none;strokeWidth=2;fillColor=#E6E6E6;fontFamily=Verdana;fontSize=12;fontColor=#00BEF2" parent="1" vertex="1">
          <mxGeometry x="400" y="120" width="165" height="670" as="geometry" />
        </mxCell>
        <mxCell id="2022" value="" style="rounded=1;whiteSpace=wrap;html=1;dashed=1;strokeColor=none;strokeWidth=2;fillColor=#E6E6E6;fontFamily=Verdana;fontSize=12;fontColor=#00BEF2" parent="1" vertex="1">
          <mxGeometry x="580" y="120" width="165" height="670" as="geometry" />
        </mxCell>
        <mxCell id="2023" value="" style="rounded=1;whiteSpace=wrap;html=1;dashed=1;strokeColor=none;strokeWidth=2;fillColor=#E6E6E6;fontFamily=Verdana;fontSize=12;fontColor=#00BEF2" parent="1" vertex="1">
          <mxGeometry x="760" y="120" width="165" height="670" as="geometry" />
        </mxCell>
        <mxCell id="2024" value="" style="rounded=1;whiteSpace=wrap;html=1;dashed=1;strokeColor=none;strokeWidth=2;fillColor=#E6E6E6;fontFamily=Verdana;fontSize=12;fontColor=#00BEF2" parent="1" vertex="1">
          <mxGeometry x="940" y="120" width="165" height="670" as="geometry" />
        </mxCell>
        <mxCell id="2025" value="多层级数据保护" style="whiteSpace=wrap;html=1;dashed=1;strokeColor=none;strokeWidth=2;fillColor=#3399FF;fontFamily=Helvetica;fontSize=18;fontColor=#FFFFFF;fontStyle=1" parent="1" vertex="1">
          <mxGeometry x="40" y="120" width="230" height="60" as="geometry" />
        </mxCell>
        <mxCell id="2027" value="Data&lt;div&gt;Services&lt;/div&gt;" style="whiteSpace=wrap;html=1;dashed=1;strokeColor=none;strokeWidth=2;fillColor=#3399FF;fontFamily=Helvetica;fontSize=18;fontColor=#FFFFFF;fontStyle=1" parent="1" vertex="1">
          <mxGeometry x="400" y="120" width="165" height="60" as="geometry" />
        </mxCell>
        <mxCell id="2028" value="Data&lt;div&gt;Storage&lt;/div&gt;" style="whiteSpace=wrap;html=1;dashed=1;strokeColor=none;strokeWidth=2;fillColor=#3399FF;fontFamily=Helvetica;fontSize=18;fontColor=#FFFFFF;fontStyle=1" parent="1" vertex="1">
          <mxGeometry x="580" y="120" width="165" height="60" as="geometry" />
        </mxCell>
        <mxCell id="2029" value="App&lt;div&gt;Services&lt;/div&gt;" style="whiteSpace=wrap;html=1;dashed=1;strokeColor=none;strokeWidth=2;fillColor=#3399FF;fontFamily=Helvetica;fontSize=18;fontColor=#FFFFFF;fontStyle=1" parent="1" vertex="1">
          <mxGeometry x="760" y="120" width="165" height="60" as="geometry" />
        </mxCell>
        <mxCell id="2030" value="&amp;nbsp; &amp;nbsp;Presentation" style="whiteSpace=wrap;html=1;dashed=1;strokeColor=none;strokeWidth=2;fillColor=#3399FF;fontFamily=Helvetica;fontSize=18;fontColor=#FFFFFF;fontStyle=1" parent="1" vertex="1">
          <mxGeometry x="940" y="120" width="165" height="60" as="geometry" />
        </mxCell>
        <mxCell id="2032" value="" style="shape=mxgraph.arrows.two_way_arrow_horizontal;html=1;verticalLabelPosition=bottom;verticalAlign=top;strokeWidth=2;strokeColor=none;dashed=1;fillColor=#FFFFFF;fontFamily=Verdana;fontSize=12;fontColor=#00BEF2" parent="1" vertex="1">
          <mxGeometry x="360" y="131" width="67" height="39" as="geometry" />
        </mxCell>
        <mxCell id="2033" value="" style="shape=mxgraph.arrows.two_way_arrow_horizontal;html=1;verticalLabelPosition=bottom;verticalAlign=top;strokeWidth=2;strokeColor=none;dashed=1;fillColor=#FFFFFF;fontFamily=Verdana;fontSize=12;fontColor=#00BEF2" parent="1" vertex="1">
          <mxGeometry x="540" y="131" width="67" height="39" as="geometry" />
        </mxCell>
        <mxCell id="2034" value="" style="shape=mxgraph.arrows.two_way_arrow_horizontal;html=1;verticalLabelPosition=bottom;verticalAlign=top;strokeWidth=2;strokeColor=none;dashed=1;fillColor=#FFFFFF;fontFamily=Verdana;fontSize=12;fontColor=#00BEF2" parent="1" vertex="1">
          <mxGeometry x="720" y="131" width="67" height="39" as="geometry" />
        </mxCell>
        <mxCell id="2035" value="" style="shape=mxgraph.arrows.two_way_arrow_horizontal;html=1;verticalLabelPosition=bottom;verticalAlign=top;strokeWidth=2;strokeColor=none;dashed=1;fillColor=#FFFFFF;fontFamily=Verdana;fontSize=12;fontColor=#00BEF2" parent="1" vertex="1">
          <mxGeometry x="900" y="131" width="67" height="39" as="geometry" />
        </mxCell>
        <mxCell id="2037" value="" style="verticalLabelPosition=bottom;html=1;verticalAlign=top;strokeColor=none;fillColor=#3399FF;shape=mxgraph.azure.tablet;dashed=1;fontFamily=Helvetica;fontSize=14;fontColor=#004C99" parent="1" vertex="1">
          <mxGeometry x="66" y="401" width="50" height="37.5" as="geometry" />
        </mxCell>
        <mxCell id="2038" value="" style="verticalLabelPosition=bottom;html=1;verticalAlign=top;strokeColor=none;fillColor=#3399FF;shape=mxgraph.azure.mobile;dashed=1;fontFamily=Helvetica;fontSize=14;fontColor=#004C99" parent="1" vertex="1">
          <mxGeometry x="146" y="395" width="35" height="50" as="geometry" />
        </mxCell>
        <mxCell id="2039" value="Devices" style="verticalLabelPosition=bottom;html=1;verticalAlign=top;strokeColor=none;fillColor=#3399FF;shape=mxgraph.azure.laptop;dashed=1;fontFamily=Helvetica;fontSize=14;fontColor=#004C99" parent="1" vertex="1">
          <mxGeometry x="96" y="451" width="50" height="30" as="geometry" />
        </mxCell>
        <mxCell id="2041" value="Social" style="verticalLabelPosition=bottom;html=1;verticalAlign=top;strokeColor=none;fillColor=#3399FF;shape=mxgraph.azure.user;dashed=1;fontSize=14;fontColor=#004C99" parent="1" vertex="1">
          <mxGeometry x="92" y="680" width="47.5" height="50" as="geometry" />
        </mxCell>
        <mxCell id="2042" value="" style="verticalLabelPosition=bottom;html=1;verticalAlign=top;strokeColor=none;fillColor=#3399FF;shape=mxgraph.azure.github_code;dashed=1;fontSize=14;fontColor=#004C99" parent="1" vertex="1">
          <mxGeometry x="133" y="560" width="50" height="50" as="geometry" />
        </mxCell>
        <mxCell id="2043" value="" style="verticalLabelPosition=bottom;html=1;verticalAlign=top;strokeColor=none;fillColor=#3399FF;shape=mxgraph.azure.dropbox_code_source;dashed=1;fontSize=14;fontColor=#004C99" parent="1" vertex="1">
          <mxGeometry x="73" y="563" width="50" height="47.5" as="geometry" />
        </mxCell>
        <mxCell id="2044" value="Repositories" style="text;html=1;strokeColor=none;fillColor=none;align=center;verticalAlign=middle;whiteSpace=wrap;overflow=hidden;dashed=1;fontSize=14;fontColor=#004C99" parent="1" vertex="1">
          <mxGeometry x="60" y="620" width="120" height="20" as="geometry" />
        </mxCell>
        <mxCell id="2047" value="Windows Azure Management Portal" style="text;html=1;strokeColor=none;fillColor=none;align=center;verticalAlign=middle;whiteSpace=wrap;overflow=hidden;dashed=1;fontSize=36;fontColor=#FFFFFF;fontFamily=Helvetica;fontStyle=1" parent="1" vertex="1">
          <mxGeometry x="40" y="50" width="1060" height="50" as="geometry" />
        </mxCell>
        <mxCell id="2048" value="Business&amp;nbsp;&lt;div&gt;Analytics&lt;/div&gt;" style="rounded=1;whiteSpace=wrap;html=1;dashed=1;strokeColor=none;strokeWidth=2;fillColor=#FFFFFF;fontFamily=Helvetica;fontSize=14;fontColor=#FFB366;opacity=75;verticalAlign=top;fontStyle=1" parent="1" vertex="1">
          <mxGeometry x="410" y="190" width="140" height="260" as="geometry" />
        </mxCell>
        <mxCell id="2049" value="Data&lt;div&gt;Management&lt;/div&gt;" style="rounded=1;whiteSpace=wrap;html=1;dashed=1;strokeColor=none;strokeWidth=2;fillColor=#FFFFFF;fontFamily=Helvetica;fontSize=14;fontColor=#FFB366;opacity=75;verticalAlign=top;fontStyle=1" parent="1" vertex="1">
          <mxGeometry x="413" y="460" width="140" height="320" as="geometry" />
        </mxCell>
        <mxCell id="2050" value="SQL Reporting" style="verticalLabelPosition=bottom;html=1;verticalAlign=top;strokeColor=none;fillColor=#3399FF;shape=mxgraph.azure.sql_reporting;dashed=1;fontSize=14;fontColor=#004C99" parent="1" vertex="1">
          <mxGeometry x="460" y="258" width="40" height="50" as="geometry" />
        </mxCell>
        <mxCell id="2051" value="HDInsight" style="verticalLabelPosition=bottom;html=1;verticalAlign=top;strokeColor=none;fillColor=#3399FF;shape=mxgraph.azure.hdinsight;dashed=1;fontSize=14;fontColor=#004C99" parent="1" vertex="1">
          <mxGeometry x="458" y="355" width="50" height="50" as="geometry" />
        </mxCell>
        <mxCell id="2052" value="SQL Database" style="verticalLabelPosition=bottom;html=1;verticalAlign=top;strokeColor=none;fillColor=#3399FF;shape=mxgraph.azure.sql_database;dashed=1;fontFamily=Helvetica;fontSize=14;fontColor=#004C99" parent="1" vertex="1">
          <mxGeometry x="464" y="600" width="37.5" height="50" as="geometry" />
        </mxCell>
        <mxCell id="2053" value="Tables" style="verticalLabelPosition=bottom;html=1;verticalAlign=top;strokeColor=none;fillColor=#3399FF;shape=mxgraph.azure.storage_table;dashed=1;fontFamily=Helvetica;fontSize=14;fontColor=#004C99" parent="1" vertex="1">
          <mxGeometry x="458" y="689" width="50" height="45" as="geometry" />
        </mxCell>
        <mxCell id="2054" value="Blobs" style="verticalLabelPosition=bottom;html=1;verticalAlign=top;strokeColor=none;fillColor=#3399FF;shape=mxgraph.azure.storage_blob;dashed=1;fontFamily=Helvetica;fontSize=14;fontColor=#004C99" parent="1" vertex="1">
          <mxGeometry x="457" y="523" width="50" height="45" as="geometry" />
        </mxCell>
        <mxCell id="2055" value="Storage Management" style="rounded=1;whiteSpace=wrap;html=1;dashed=1;strokeColor=none;strokeWidth=2;fillColor=#FFFFFF;fontFamily=Helvetica;fontSize=14;fontColor=#FFB366;opacity=75;verticalAlign=top;fontStyle=1" parent="1" vertex="1">
          <mxGeometry x="594" y="240" width="140" height="280" as="geometry" />
        </mxCell>
        <mxCell id="2056" value="Storage Servers" style="verticalLabelPosition=bottom;html=1;verticalAlign=top;strokeColor=none;fillColor=#3399FF;shape=mxgraph.azure.server_rack;dashed=1;fontFamily=Helvetica;fontSize=14;fontColor=#004C99" parent="1" vertex="1">
          <mxGeometry x="639" y="316" width="50" height="50" as="geometry" />
        </mxCell>
        <mxCell id="2057" value="Database" style="verticalLabelPosition=bottom;html=1;verticalAlign=top;strokeColor=none;fillColor=#3399FF;shape=mxgraph.azure.database;dashed=1;fontFamily=Helvetica;fontSize=14;fontColor=#004C99" parent="1" vertex="1">
          <mxGeometry x="644" y="414" width="37.5" height="50" as="geometry" />
        </mxCell>
        <mxCell id="2058" value="Physical&lt;div&gt;Data Storage&lt;/div&gt;" style="verticalLabelPosition=bottom;html=1;verticalAlign=top;strokeColor=none;fillColor=#3399FF;shape=mxgraph.azure.vhd;dashed=1;fontFamily=Helvetica;fontSize=14;fontColor=#004C99" parent="1" vertex="1">
          <mxGeometry x="643" y="590" width="40" height="50" as="geometry" />
        </mxCell>
        <mxCell id="2059" value="Identity" style="rounded=1;whiteSpace=wrap;html=1;dashed=1;strokeColor=none;strokeWidth=2;fillColor=#FFFFFF;fontFamily=Helvetica;fontSize=14;fontColor=#FFB366;opacity=75;verticalAlign=top;fontStyle=1" parent="1" vertex="1">
          <mxGeometry x="773" y="196" width="140" height="134" as="geometry" />
        </mxCell>
        <mxCell id="2060" value="Windows Azure&amp;nbsp;&lt;div&gt;Active Directorry&lt;/div&gt;" style="verticalLabelPosition=bottom;html=1;verticalAlign=top;strokeColor=none;fillColor=#3399FF;shape=mxgraph.azure.azure_active_directory;dashed=1;fontFamily=Helvetica;fontSize=14;fontColor=#004C99" parent="1" vertex="1">
          <mxGeometry x="819" y="225" width="47.5" height="50" as="geometry" />
        </mxCell>
        <mxCell id="2061" value="Performance" style="rounded=1;whiteSpace=wrap;html=1;dashed=1;strokeColor=none;strokeWidth=2;fillColor=#FFFFFF;fontFamily=Helvetica;fontSize=14;fontColor=#FFB366;opacity=75;verticalAlign=top;fontStyle=1" parent="1" vertex="1">
          <mxGeometry x="774" y="341" width="140" height="199" as="geometry" />
        </mxCell>
        <mxCell id="2062" value="Caching" style="verticalLabelPosition=bottom;html=1;verticalAlign=top;strokeColor=none;fillColor=#3399FF;shape=mxgraph.azure.azure_cache;dashed=1;fontFamily=Helvetica;fontSize=14;fontColor=#004C99" parent="1" vertex="1">
          <mxGeometry x="821" y="376" width="45" height="50" as="geometry" />
        </mxCell>
        <mxCell id="2063" value="Content&amp;nbsp;&lt;div&gt;Delivery Network&lt;/div&gt;" style="verticalLabelPosition=bottom;html=1;verticalAlign=top;strokeColor=none;fillColor=#3399FF;shape=mxgraph.azure.content_delivery_network;dashed=1;fontFamily=Helvetica;fontSize=14;fontColor=#004C99" parent="1" vertex="1">
          <mxGeometry x="819" y="455" width="50" height="32.5" as="geometry" />
        </mxCell>
        <mxCell id="2064" value="Messaging" style="rounded=1;whiteSpace=wrap;html=1;dashed=1;strokeColor=none;strokeWidth=2;fillColor=#FFFFFF;fontFamily=Helvetica;fontSize=14;fontColor=#FFB366;opacity=75;verticalAlign=top;fontStyle=1" parent="1" vertex="1">
          <mxGeometry x="773" y="550" width="140" height="229" as="geometry" />
        </mxCell>
        <mxCell id="2065" value="Queues" style="verticalLabelPosition=bottom;html=1;verticalAlign=top;strokeColor=none;fillColor=#3399FF;shape=mxgraph.azure.queue_generic;dashed=1;fontFamily=Helvetica;fontSize=14;fontColor=#004C99" parent="1" vertex="1">
          <mxGeometry x="820" y="576" width="50" height="15" as="geometry" />
        </mxCell>
        <mxCell id="2066" value="Service Bus" style="verticalLabelPosition=bottom;html=1;verticalAlign=top;strokeColor=none;fillColor=#3399FF;shape=mxgraph.azure.service_bus;dashed=1;fontFamily=Helvetica;fontSize=14;fontColor=#004C99" parent="1" vertex="1">
          <mxGeometry x="824" y="624" width="45" height="50" as="geometry" />
        </mxCell>
        <mxCell id="2067" value="Media Services" style="verticalLabelPosition=bottom;html=1;verticalAlign=top;strokeColor=none;fillColor=#3399FF;shape=mxgraph.azure.media_service;dashed=1;fontFamily=Helvetica;fontSize=14;fontColor=#004C99" parent="1" vertex="1">
          <mxGeometry x="821" y="703" width="45" height="50" as="geometry" />
        </mxCell>
        <mxCell id="2071" value="Web Dashboards" style="verticalLabelPosition=bottom;html=1;verticalAlign=top;strokeColor=none;fillColor=#3399FF;shape=mxgraph.azure.laptop;dashed=1;fontFamily=Helvetica;fontSize=14;fontColor=#004C99" parent="1" vertex="1">
          <mxGeometry x="998" y="301" width="50" height="30" as="geometry" />
        </mxCell>
        <mxCell id="2072" value="Certificates" style="verticalLabelPosition=bottom;html=1;verticalAlign=top;strokeColor=none;fillColor=#3399FF;shape=mxgraph.azure.certificate;dashed=1;fontFamily=Helvetica;fontSize=14;fontColor=#004C99" parent="1" vertex="1">
          <mxGeometry x="998" y="399" width="50" height="40" as="geometry" />
        </mxCell>
        <mxCell id="2073" value="Enterprise&lt;div&gt;Services&lt;/div&gt;" style="verticalLabelPosition=bottom;html=1;verticalAlign=top;strokeColor=none;fillColor=#3399FF;shape=mxgraph.azure.enterprise;dashed=1;fontFamily=Helvetica;fontSize=14;fontColor=#004C99" parent="1" vertex="1">
          <mxGeometry x="1008" y="518" width="30" height="50" as="geometry" />
        </mxCell>
        <mxCell id="2074" value="Seminars" style="verticalLabelPosition=bottom;html=1;verticalAlign=top;strokeColor=none;fillColor=#3399FF;shape=mxgraph.azure.user;dashed=1;fontFamily=Helvetica;fontSize=14;fontColor=#004C99" parent="1" vertex="1">
          <mxGeometry x="1001" y="630" width="47.5" height="50" as="geometry" />
        </mxCell>
        <mxCell id="2075" value="" style="arrow;html=1;endArrow=block;endFill=1;strokeColor=none;strokeWidth=4;fontFamily=Helvetica;fontSize=36;fontColor=#FFB366;fillColor=#FFB366;" parent="1" edge="1">
          <mxGeometry width="100" height="100" relative="1" as="geometry">
            <mxPoint x="167" y="283" as="sourcePoint" />
            <mxPoint x="247" y="283" as="targetPoint" />
          </mxGeometry>
        </mxCell>
        <mxCell id="2077" value="" style="arrow;html=1;endArrow=block;endFill=1;strokeColor=none;strokeWidth=4;fontFamily=Helvetica;fontSize=36;fontColor=#FFB366;fillColor=#FFB366;" parent="1" edge="1">
          <mxGeometry width="100" height="100" relative="1" as="geometry">
            <mxPoint x="527" y="360" as="sourcePoint" />
            <mxPoint x="607" y="360" as="targetPoint" />
          </mxGeometry>
        </mxCell>
        <mxCell id="2078" value="" style="arrow;html=1;endArrow=block;endFill=1;strokeColor=none;strokeWidth=4;fontFamily=Helvetica;fontSize=36;fontColor=#FFB366;fillColor=#FFB366;" parent="1" edge="1">
          <mxGeometry width="100" height="100" relative="1" as="geometry">
            <mxPoint x="714" y="426" as="sourcePoint" />
            <mxPoint x="794" y="426" as="targetPoint" />
          </mxGeometry>
        </mxCell>
        <mxCell id="2079" value="" style="arrow;html=1;endArrow=block;endFill=1;strokeColor=none;strokeWidth=4;fontFamily=Helvetica;fontSize=36;fontColor=#FFB366;fillColor=#FFB366;" parent="1" edge="1">
          <mxGeometry width="100" height="100" relative="1" as="geometry">
            <mxPoint x="714" y="270" as="sourcePoint" />
            <mxPoint x="794" y="270" as="targetPoint" />
          </mxGeometry>
        </mxCell>
        <mxCell id="2080" value="" style="arrow;html=1;endArrow=block;endFill=1;strokeColor=none;strokeWidth=4;fontFamily=Helvetica;fontSize=36;fontColor=#FFB366;fillColor=#FFB366;" parent="1" edge="1">
          <mxGeometry width="100" height="100" relative="1" as="geometry">
            <mxPoint x="887" y="438" as="sourcePoint" />
            <mxPoint x="967" y="438" as="targetPoint" />
          </mxGeometry>
        </mxCell>
        <mxCell id="2081" value="" style="arrow;html=1;endArrow=block;endFill=1;strokeColor=none;strokeWidth=4;fontFamily=Helvetica;fontSize=36;fontColor=#FFB366;fillColor=#FFB366;" parent="1" edge="1">
          <mxGeometry width="100" height="100" relative="1" as="geometry">
            <mxPoint x="894" y="664" as="sourcePoint" />
            <mxPoint x="974" y="664" as="targetPoint" />
          </mxGeometry>
        </mxCell>
        <mxCell id="2082" value="" style="arrow;html=1;endArrow=block;endFill=1;strokeColor=none;strokeWidth=4;fontFamily=Helvetica;fontSize=36;fontColor=#FFB366;fillColor=#FFB366;" parent="1" edge="1">
          <mxGeometry width="100" height="100" relative="1" as="geometry">
            <mxPoint x="707" y="639" as="sourcePoint" />
            <mxPoint x="787" y="639" as="targetPoint" />
          </mxGeometry>
        </mxCell>
        <mxCell id="2083" value="" style="arrow;html=1;endArrow=block;endFill=1;strokeColor=none;strokeWidth=4;fontFamily=Helvetica;fontSize=36;fontColor=#FFB366;fillColor=#FFB366;" parent="1" edge="1">
          <mxGeometry width="100" height="100" relative="1" as="geometry">
            <mxPoint x="534" y="624" as="sourcePoint" />
            <mxPoint x="614" y="624" as="targetPoint" />
          </mxGeometry>
        </mxCell>
        <mxCell id="2085" value="" style="arrow;html=1;endArrow=block;endFill=1;strokeColor=none;strokeWidth=4;fontFamily=Helvetica;fontSize=36;fontColor=#FFB366;fillColor=#FFB366;" parent="1" edge="1">
          <mxGeometry width="100" height="100" relative="1" as="geometry">
            <mxPoint x="174" y="688" as="sourcePoint" />
            <mxPoint x="254" y="688" as="targetPoint" />
          </mxGeometry>
        </mxCell>
        <mxCell id="vOcRZGkYvILjWfMXEdz--2085" value="" style="shape=image;verticalLabelPosition=bottom;labelBackgroundColor=default;verticalAlign=top;aspect=fixed;imageAspect=0;image=data:image/png,iVBORw0KGgoAAAANSUhEUgAAASMAAACLCAYAAAAqGP8aAAAgAElEQVR4nOydd3wVVfbAvzPzWnpPCBAg9F6kiihYEPsqCvZVbKy7uru6q667P7vr2juKCIoo4K4N7IoFEAWkCEgJnSQkhCSkvbw+M+f3x7w8EiAQIgHWfV8+jyRvbjn3ztwz95577r2KiAhRokSJckwQQMET1FGiyihKlCjHDkEEFEXBdqxFiRIlyv8yCopi/aYeW0GiRIkSxSKqjKJEiXJcEFVGUaJEOS6IKqMoUaIcF0SVUZQoUY4LosooSpQoxwVRZRQlSpTjgqgyihIlynFBVBlFiRLluOCYKSMRQdd1TNM8ViJEiRLlOOKoLwcREaqrq/H7/dhsNhRFIS0t7WiLESVKlOOMllVGAqIICtbik9LSUoqKikhLSyM1NZW4uDjcbjeBQACn09miokSJEuX4poV7RpYictfW8vPPP7MxL4/4+HjsdjsAPq8XUwTTNKPKKEqU/3Fa1mYUXo770xuz8ORtYsy555KckoJmsxEyDKrdbvJ37KC0tJTITiaRHU32/fnfyK+hDFGiHB2Oyn5GZUuXs/HJF7AnJRHomouZEEfn/n0prq7ClZJMXFoama1akRCfsF9ca6+Tw89TRFAOENE0Tfx+Py6XC1U9crrY7Xbj9XrJyso6kDDNK0SUKP9DaPfff//9LZW4hHsEcW3bkNCtM7tXrsYRCqKu34CxPR//8uX4f/gO9eefCaxfi213CWZ1NagqisuFomnNasN+v58XXniB+Pj4iHLIy8vjrbfeIjc3l0WLFpGZmUlMTMwRKWdZWRlPPfUUBQUFtGvXjlAoRExMDDU1NdTWuomNjTsi+USJ8mumRZWREv4HENMqi6QO7QgWFuDQNPo8/ThOpwPH9q24Al4S2ufiK9pJ6KdleL6Zh//LT/GtXI5eVYVid6IlJkKDnoyAKKBY21bWx+fzcc8995CXl8eFF14IwOTJk5k1axZXX301KSkppKenEwwGWb9+PcFgELvdTnV1NaWlpSQmJpKXl8eePXtISkpC0zR27txJQUEBKSkpiAjr16+nsrKS9PR0vvvuO1atWsXEiRN5+eWXcbvdZGZm8MoLz7N+7VqyWmWTkpraUtUcJcqvgqM4tS8k9e6JpsDme+9j+zNPYQ8EaPfYk9R89iFK2xwyTj6VwOqf8HzwNnrJLoJVFeg/LqHy3f8gNjtxp5xK/IiTcXXqhKIo7K+GLEzTpGvXrrjdbvLy8sjIyGD58uUMGzaM3bt388knn3DllVfy4osvYpomXbp0IS0tjbfeeosxY8ZgGAbbtm3DMAxyc3MZMWIEzzzzDIMGDSI+Pp6ZM2dSVVWF1+uld+/eBINBNm7cyNdff82SJUsoLS2lc8eObNywnoSEJLZs2khup05Hr6qjRPkv5KgpI8syJcT36knrM8+g9NknyLzhBsTvx3Q6UfPWEizfTWjjeuJ/Mw4p342RmETc0BEEKyvxLl1M+SefUPTa6ySNPotW11xFTLt2HEgdiQhxcXGceOKJfPbZZ6SmpnLiiSdSW1tLMBjE7XazevVqdF3n6aefBmDatGmcddZZnHvuuTzzzDPcfffdxMXFcdttt9G+fXt0XWfgwIF4PB4qKiq4//77MQyD22+/ncsuu4zq6mouu+wyioqKGDJkCL379uX8i8ZSU1PDCUMGH61qjhLlv5ajpozqG5OTTjsNz4J5GEWF1Nz7FxxVZdhqKgmdcS5xt94JdjueqQuIOet8THcNZnEBZtCPq3NHvNu3s2f+t5QuXkrun/9I5pmnU3fCgLDXpykUCjF06FBeeeUVPv/8cyZNmsTLL78MWMrKMAx0XY/IZBgGOTk5OBwOQqEQgUAgYuAeOHAgrVu35uWXX2b48OGICIFAgFAohN1uR0QIhUIABAIBvF4vTqeTseMvDZc7arz+JTTWA65/7WBhjlReTYtbNx90qFT2bkTfpLTrTcg0NYeDZG1ZOA43EvVHI0eqxvdyTDbk12JjSB97CYmXXIb/o3cxnnoQtWMnzCUL8cfFo2a3xVy3ioAeIlSwHTU7B8cZ5+Dq3ovA5q10uec+qn9azaZnX8JXuof2V42zqiZcP5qmkZGRQadOnTjhhBPo378/KSkpZGRk4HK5SEtLY9CgQSxfvpwHH3yQtm3bkpKSgsvlIisri169ejF58mQURWHUqFGUlZWxdOlSMjMzGTVqFD6fj0mTJhEIBDjnnHPIysoiPT0du91Obm4u8+fP5+STTyYpKelYVO9/NZFHXoC6oXgoiAQCNPbwi4DidIDDsV+TAcA0Ea+3abOaikBsHCiHMdNq6EhJKWSkg8PeqJz7ZISigAQDEAwdPKgIuFxgCmYggOqwg8vZxHz2SUcJayHDAJ8fEfPAdVJXhXYHOB3WS94wwOtB4hNAUY74K/aYHFVklJVS9c08HBmpyLLFULiDmFvuxNiZj/niY0hpCZKYjHb1TdhPGY2W0x4Cfkqe+BeuAQNJOfcCAGo2b2XDE8/T+uzR5Fx03t70DYPS0lIyMzMjxmlVVamqqop4faemphIIBFi7di1ZWVkkJiaiaRoJCZZ7wYYNG9A0ja5du+Lz+VizZg0ZGRl07NgREWHVqlXExMTQvXt3fD4ftbW1ZGRk4PV62b59O507d446cjaTujYjBQUEX5uBuWY1+PyNhLb6RYrLhdq3N7YJ16B26NAghPHVNwSfewFCoXpKRvZJI/ybCLTJxn71lWijRh5aVlMI/u0fGPPmoY0Zg/Oh+yDs1HswzM1b0F9/A3NDHuKvK1tdH6+eXKEQSm57nP98EP2zL9DfnIma0xbHy5NQXM14vvx+9HfeRf/kc8TthkbXhlqjDNvNN2G74HzE4yE09TWkoAAlqxX2669FOcLLuI5Jz0ix2QguWoDSowcJY84n8MWHmJV70JcvQat1ow4ahrG7BAIBtJz2KEDNB/8hpk0bks69ABMgFCS2dRbtrr2cTS9MIalXdxK7dgasnlF2djYALpeLiooKampq0DQNr9dLeno6qqoSExPD4MEN7TmmaVJTU0NycjKGYVBcXExqaipDhw7dK7+iMGDAAABqa2sByMjIACA2NpZevXo1qR5M06SiogK32w2AzWYjJSWF+Pj45lbtrwJFAf399wnefS/mpg1A44upG/SBPvwA/Y23cLz4LLbzzo2EMbduxfj0w3oNr2GjP9BQT3/3A5yTnsd+1eX75tLgb+PzLwhNfhFxuzF/XoPtzNPRTjv1oOXT359D4C93Iju2AmY940Jd2g1zst8wESUzE1m7Fv3rL1AzW+PUQ8ChlVF9yWVXMYE//QX9gzmg+8P5HrgvIoCanoWj7wsIYK5ajfy0CrE7MH/+GrVvH2xnnXnI/A+HY6KMDE8tkrcW+9BhGD/Mx1y+hIBuoAb86L36EffYy5i7dhJ87hGC789CWrUmuHo5ysmj2fPmDNwFO8HhRHfFYsQn0Pa8s+t5bu9l5cqVvP766yxatIht27ahKApxcXH07NmTSZMm0bVr10hYEeGHH37g7bffZvny5WzatIlQKERqaionnHACo0eP5oorrthv6HXvvfdSVFTEk08+SU5OTpPrYOXKlcyYMYMFCxawfft2AOLi4ujduzcvvPBCA9n+1zAWfkfghpuRyj2AhtU0DtxolPq/mSpm/lYCE26Af89EO+0067rNBpoLMXUURQcxD6he9v5uh5o9BP/2d7T+fVF77/NyCdtcCIbQZ85G3G5UzYkYQYLPvUjMQZSR8fkX+G/+A5SWgKKFVx40PjhRW+dg/+Mt1h+aZv08jB53nelC3G78N96M8cmHgAPryES9UcuPAtgmTkTt0MGSTtchIRFFUyE39yA9quZzTJRRcPsO1MHDCbz5KqQm4bzpz6iduxJ461Vcv78DxRWD2rY9nHsx+qvPIoEQJKYS/PwTtPadSBk8EDUjC2d2Fs6s7Hq1ubdq582bx0033URBQQFDhw5l3Lhx6LrO1q1b+eqrrygoKIg0eMMweOqpp3j44YfxeDyccMIJXHHFFSQkJLBhwwYWLVrEBx98wNy5c5k6dSpt27aNlGXFihVs3rw50kNqCvPmzeOGG26gsLCQYcOGMXbsWESETZs28e2337Jjx47/WWUkNTUEH3gYs7IMBRWlbRvsV1yOOvxEcDoO8NKxbBnmsuWEps/ALMiH8hKCf78X1wc9UMI9ZERQVBXHfQ+iDh9mDdn2yxwkv4Dg5FeQNWuQoh2E/v0fnL0f2C+oAhg/LkP/8CMUHIghCBrmokUY385HO3XUfnHM8j0E/nInlJYgKKgdcnFcfinqicNAO4CNSgQlMxOtT+/Dr8j6ggKhp5/F+OQjwAZOB9pFv8F20YWQlADmPnUqAnY76tAhkSTU7t3ANFBSkpEaN2rH3ObL1BhyFDFFxPD7Jf/Ov0rRPXfJrjNPlKo/Xy9Br0c8MyaL571ZElj6ndROflpq/3qT+O/+gwQnPS76wq/FqKwQMxBoUj6VlZVy0kknidPplHfffXe/6ytWrJDCwsLI3y+//LIA0r17d/nyyy/FMIwG4UtLS+Wmm24SQM4//3yprq6OXBs5cqS0adNGNmzY0CTZ3G63DBgwQOLi4uSdd95pcM0wDFmzZo0UFBQ0Ka1DYZpmi8RrbrpNIfjadHFrMVKDKp7+g0Rf37R6FREx8jaK9+RR4sYmNSDBlyZbaU59TdyqS9zxqaL/sPiQ6egbN4qn7wlSA+IdeZqYZeUNrteV3nfNBHGD1Cami/eiS8QdnyJuEN8NE8U09P3CBx56RNxo4kYVz8mnibF1a5PLJiISuOtuqQGpzckVcbubHM9Yt15qO3QRN6q445IlOGXqYeUbwe8Xs6pKxONtXvxDcNSUUd0NKZ8zR9ZdNl62jvuNVH/xsVS+PV1q/u/P4h5/plTdcbOU/+NP4n1nhujr14gZCjUrr2XLlkl6erqMHDnykGF37NghrVu3lqysLFm4cGGj4Xw+n4wbN04Aee211yLfH64yWrVqlaSmpsqYMWOaFP54o6mKqGhnoVRXVR1e2j6f+C65TNwg7uQMCX3y6WHLpy/5UdypWVKDIp6TTxURkeC0espo0fdNSsd/65/FDeLp0Fn09ev3z2fVKnEnpIUVy6liFheL95TTLOWUli36T6sbls3tFu+wEdb19GzRf1xmfX8YZWuuMgo881xYCSriv/2Ow8z16HHUdnpUAN/OnVSs34Daug3xF1+GqdlxL/oOX3ER3nMuRr3uD8T//WGcl1wNPfpYY/26Hly9/w+FqqpomkZNTQ2BQOCgYWfPnk1xcTETJkzg5JNPbjScy+Xi7rvvjsTxer1NkuVAsqmqSm1tLT6fr0lxqqqqmDp1KqNGjSI3N5cLLriADz74gGAw2CDMI488wpdffklxcTF33HEHp512Gu+++y6zZ8/m0UcfpbCwcL+0RYQpU6bwzDPPUFFRAYDX6+X9999nzJgxdOzYkdGjRzN9+nQ8Hk/E18Xv9/Pkk08yc+ZMysrKeOihhxg1ahQvT36ZHxcv5rknHuetN16nrLS0yXUjO3difDsfAPsZp6Odc7ZlLZKm2icEbehg7Bf9xjJI/7wWqXUf3jR9GCU8Iya6DkbD/AUIvfQKuCsBFfstv0fJzka74jJQnZh7dqFPf6PB02puyMPcWQSA7fJL0QYPqpdaC2IayNp1CAZKTgdsl43nePV7a/H9jOoKHqqqZtPzr+BesZyEnGzKV6wgJjmB1AkTCbbrQGxCIi6Hw9qKVtdRFAWlzmAXSaVpldilSxd69+7N119/zV133cXDDz98wBkqwzBYvnw5drudCy644JDpdu/enUGDBrFo0SKqqqqIjY1tkjz16dy5Mz179mThwoXce++93HfffQedPdu1axfXXnstX375JQMHDmTAgAGsXbuWsWPH8te//pUnnngCgMrKSh5++GEuvvhidu7cybp160hPT6e0tJRdu3bx8MMPk5aWxo033tgg/VWrVvH3v/+dIUOGcNttt+HxeJg4cSKzZs2iT58+9O/fn23btjFhwgS++eYbpk2bht1ux+fz8eijj9KjRw9mz57NkiVLSEtLY9PGTXTKyWF3yW5MEXy+pitts6AQ2bMbUZ2oJ4/Ye7cPU5loZ48hNG0q4vVhrl5rGV0jHLrxi8+PsXmzNaOUnIyyz0Jnc9kKjE8/A0zUYSdiO82yD9kvHUfo2Rcgbx2h2f/BduvNqJ06W+XIL4DSMrDFoJ18UiStI++ts09Z3LWYRUWRv/V330f/9PNDG6BNEzWnLbYbr0NphjJvFi3a7wp36YNV1bL0+j/KnMzO8sMlV8gPTz8jm5cskbJwN76stFQ8Xm84iil+v19CzRyi1bF48WJp3769AHLSSSfJp59+KoF9bE67d++WoUOHSmZmpni9hx4HG4Yh1113nQCyZs0aETn8YZqIyPfffy85OTkCyIgRI+TDDz+UYDB4wLA33nijAPLPf/5TysrKxDRN2bJli5x33nkCyFdffSUiItu3b5ekpCRJTU2V8847T9atWyf5+flSWloqa9euFUVRZPz48eL3+xuk/9hjjwkgb731loiI3HPPPQLI7bffLsXFxWIYhuzatUuuv/56AeSNN94QEZGKigrJzs4Wh8Mhw4YNk5UrV0pBQYHsyM+XstLdMvfdd2TBt99IwN80O5+ISOjdDyy7hite9G++aXK8OkwxxRQRfclSa1hijxV97kcSnPFmg2GaGQqJuWuXmKWlDT9lZWKUlEjg8aekNj7Vsv9cPUEkbP8xwx//Xf+QGhA3dgk890IkdxGRwGNPihtFatEk8I97IrIFX39DalDFndZK9G+/PeyyiTRvmGbs3i3eoSdJDZq4Vae4UcQNUtOEj//+B5slZ3NpcZuRv7RUvr/hT/LJqedJ6beLZPvWrbJ67TrRDUPy8/PF7XZLaWmpeLweCQQC4vP5RNd10XX90Ikfgk2bNsnll18uDodDADn99NMb2IWKiopkwIAB0qZNmyaneccddwggP/zwg4g0TxnVyXb11VfvJ1t94/maNWtEURS59tpr96uPhQsXSmJiotxwww0iYimjxMRESUxMlC1btuyX3+mnny5JSUmSl5cX+a6qqkpOPfVUycnJEb/fL7t27ZLU1FQ544wzGhjpRUTWrl0rOTk5cuaZZ4qINUnQunVrURRFvv9+fztMc6wSofc+sBqLK1H0b5rXYEVE9MVhZWSLFf3DesooIVX0pT+KsWSp1OZ0FHdKhrgzsqU2/HFnZIs7LUvc9lgrflyihOZ82CBtY8tWqc1qY9mTeg8Qo6AwXF6rxMa27eLp2NW63rVnxAAfnDLVsoWlt5LQt/ObVa7mKCOzqFg8/Qdb5VEdEUXkPsTH07O3GEdoIqWptOgwzbuzmMJ35lCZkUy7mx8g7YQT2LZ0KR07dkRTVbKysigsLERRFFRVJS4uLuK1bBjGL86/S5cuvPHGG1xzzTW89NJLfPzxxyxevJhHH32UW265JbL2TA7DCb3OzhMX98v2KKqT7fLLL2fy5Ml89NFHLFu2jAceeIBbbrkFm83GggULEBFSU1P58ccfI3nXbWmiaRo7duwALEdM0zQZPHgw7du33y+/a6+9lq+//pr58+fTrVs3ANavX8+3337L/fffj9PpZPHixVRXV5Odnc26desi+amqSk1NDU6nk6KiIkzTRFEUdF2nV69eB3TybNbgIzHR+hkKYOZtPOD0eFOQoiJArOny5BSorAxfAHQddfiJ2G+eSODee0A3EUULr2wEJeKDZGC7+BK0885usMREf2MGsrsEsGG75CLUnLbh8lolVnM7YLvycgIPPYixaSPGR5+g9egOScngiIOqGigvb1a5mkWMC9JSEQzU7By0889FcToP6JdnIaCq2M4/D/Uw/OaOBC2mjEoKCtB3FtPx8ovxlZVS6/FSVFiIaZjEx8dTUVFBVVUVfr8/sji17rSQI3l8kc1mY8yYMYwcOZKPPvqIv/zlL9x22220bduWM888k6SkJLZv305RURFt2rQ5aFqBQIC8vDw0TSP1COxPpCgKZ599NiNHjuTzzz/n9ttv5y9/+QvZ2dlceumlFBQUAPD6668ze/bsBkrTNE2qq6tRVTWyiNIwDDp06IDNtv9tPemkk+jQoQNvvvkmEydOBOD9998nLi4uYi/btWsXpmkyd+5cvvrqqwb5iQiVlZX06dOHQCBgbeEiQkZGRmRP81+K2i4HJSUTqdyN8cMS7DdPPMwUwgrj088BQXHa0Xr1xNyypUE5AOx/vQ0p2klo0iRQbYCC4nBYm/rFxmA7/3wcD92HotkQTEDFLCpCn/k2IKitslEHD0af9fbetV11a7kElIQUcFehT5mK7abrUdu3Q01Lw9hVgLHiJ2yXXPyL66tJxMejts62fNjtDuw33YA2oH+jwRv3NW95WkQZbdu+jWAgSPfhwwBICwVZvmUL5WWlJCUlsWnTJhwOB2lpaSiKQuvWrRGRyGp3RVHQ6hmvfwl1sz8ul4tx48aRkpLCmDFjeOGFF7jooovo0qUL8+fP55tvvuHqq68+aFplZWUsXryY/v37R9awHQliY2MZO3YssbGxXHjhhTz33HNceumlqKqKoihcd911jBw5ssHsWR2tWrWKKAZovMeWm5vLOeecw5QpU1i3bh0dO3bkzTff5Jxzzon0bOrq6uKLL2bs2LEHnIlMTU3F5XIdcpayOSht26COHIEx5z2ML+dhfPd9A2NvE1LAWL0aY+6HgILavQekpkB4Nk5BIssfFLsdx6OPYOYXYHz8EaChZmTgePoJtFEjUdKsl421E4TVgw5Nn4GxbQsKJtoN1wPgv+Y60IPhpRXhRSWqZt0TzYGxdRPGW7OwXT8B2rZB2VWAPmMm9quvRO3Zowll+oXqwG5H7dHDKvWOrRhzPzqoMto3V0UknH3Lq6QjroxKS0vZsX0Hp5xyCp5aD0XFRWzfvp3q6mqysrLo2rUrCQkJxMXFUV1d3eCYIrvdjt/vR1GUA77djwS9e/ema9eubN68GYCzzjqLqVOn8vbbb3PhhRceVMlMmzYNj8fDOeec0yIr8vv06UOPHj0iQ6/27dsjIuTm5nL++ecfNG6dMjrYkHPMmDG89tprzJ07lwEDBlBbW8u5556Lw+EAiPQMs7OzOe+88xpN51D5NBclNhbbWWMwPvwYs7SY4D334nprBkrbg/dYIzLtKiHw93uQPWWAiXbJ2PCFuh/1tnMRUOLjcb7wLP7dZZjLfsAsKMD46GO08/eua6sbfknhTsz356BgoLTKwX7xRSjduqKdOhJ93udYZ1uEMzINyyVBUQGV0KuvYbvuGrQxZ2Iu+xEpLiBw199xTZ8WUXoHqZUGvyuAoqiIzdbEvQFAO+tMlEkvIUUFBJ9/0VpXNvbCg+YWWc/WAqvzG+OIt/ilS5cCsHr1ajxeD1mZWcTFxdGtWzeCwSB+v59WrVoBVk8jLS0Nj8eDruuRxat6eGq/uZSUlFBRUUGPHj32Syc/P5/8/HyGDh2KaZpceOGFnHXWWXz66ac8+OCDPPDAA/tN2YsIM2fO5PHHH6djx45cfvnlDa4fTk+uqKiI2tpaunbtup9s27ZtY8eOHfToYb0xR44cid1uZ9asWYwfPz6yGLeOsrIyEhIScLlcB82zbhg3evRoOnXqxJdffsmiRYto06ZNZFtegCFDhpCVlcUHH3zANddcs9+SlMrKSpxOZ7NcGg5JeL2X7ZKL0d94E33xIowFC/CNORf7zRNROnUEn3c/W4cAiqoiu0sJTZ6CuXoNYKD2GYBt/LjG81OsDNUOHXBOeRn/xeOQbZsJvfEGJCfhfOxfDdaA6Z98ir5yGQD2C85D6d/PGpX98RZQNUsBhafAFaxGTEEh5ob1mGvXor85C/vtf8SY9Tbmti0YH3+E/9wLsF37W5SszMan2kUgNtZaMqJayk1qqjHeex+Sk8Ef4KDuCrqB2qc39quuIPjYo1BZQWDCjRgLvkMbfTroIWtrkEbuidqtK8ovWY5yOBxJa3ggEJBXXnlFvvvuu8h3JSUlsmzZMjEMQzwej/z444+ybt06KSwslBUrVsiOHTuktLQ0MuVsGIb4fL5fJMcXX3wh3bp1k5tuuklmzJghixYtkgULFshLL70k/fr1E0VRZMaMGZHweXl50q9fPwHkggsukGnTpsnSpUtl1apV8s4778g111wjcXFxkpSUJHPmzGmQ16hRoyQ+Pl7uv/9+efXVV2Xy5MkyefJkefnll2XGjBlStY8X8meffSY9e/aU3/3udzJ9+vSIbC+++GJEhrppdhGR3/3udwLIRRddJPPmzZPCwkJZt26dTJo0SUaOHCnbtm0TEWs2zeVyye9///sD1kmd5/QjjzwidrtdbDab3H333fuFe/jhhwWQkSNHyocffij5+fmSl5cnr7/+upxxxhmyerXlWVxRUSHp6ekyatQo8Xg8zbhL+8hX73/9k0/FHZskbmzhjxZe4rH/xx35qYa/08QdnyrBd9+PpB18dZq4VZfUJqQ08MCun2fo40+kNj3bci1wxkngkccirilSWyue/oOlBkXcyRn10jjwnGHdt/ryFVLbNteanRp+spjl5RJ85z2pjU+OlGmv3Af62K24XbqKsXmzBO5/yCqr6pQatPB1W/j3hnVifa+K2+aU0Iy3xKytFc8pp1llUBz18rc3knfYY/uhR37xvW0qR3xqf86cOfLaa6+JYRji9/tlwYIFUltbKyIiXq9Xtm3bJvPmzZNvvvlG1qxZI9XV1Q2WGAQCgf38gQ6X1atXRxq23W6XlJQUSU5OFk3TJCsrS1544YX98ti6datMmDBBYmJixG63S3p6umRkZIjT6ZTY2FgZPXr0AZeLnHfeeaIoisTGxjb4OJ1O6dChg2zdZ/3RqlWrpG/fvhHZkpOTI7JlZ2fL888/32Aaf8+ePXLttdeKqqqSkJAgHTt2lLZt20psbDdH6CkAACAASURBVKycdtppkSn4HTt2SFpamtx2220HrZstW7ZE8ty4ceN+130+n9x5553idDolJiZGcnNzJScnR+Li4qRv375SXFwsItbUfrt27eSss846IspoXwKvvCq1mW0ifjHVjXzqT0fXoEhtZlsJTp/RQE0EJ0+xwrhiRV/wXaNuB8GXJkutM84Ka3NG1nAFZ7wVycN38fhI+EO6L5givt9eF5lOD4XlCjz9rNQmpUXSbKxsdVPwgbusl0bguecbXDtUndSAeIeNEDPc/oy8jeIddYa4USPhGkunBsTTtoMYO4uadf+awxHfXK26uppZs2bRtm1bkpKSSE5OJjk5OXKuWHJyMrquExMTQ0pKCj6fj5iYGBwOB5qmRY75+aVnmvl8PpYtW8aKFSuoqKjAbrfTvXt3Ro8eTUpKSqPx8vPzmT9/Pps2beK9995j48aNPP/889x6660HDP/zzz9HllHUR0RwOp30799/vyORfD4fS5cuZeXKlVRUVOBwOOjRowejR48mOTn5gGktXbqUb775BrfbTUpKCiNGjGDIkCER25rf72fFihVkZWXRuXPnRstnGAarVq0CoH///pHhpexzztzq1av54osvqKysJCEhgWHDhjF8+PDIkFDXdZYvX05sbCy9e/c+cmfQ1dsS1Vi1Bv2NGZgbNyGh0AF3JFTqtvi02VC7dMF27W8jBtq6Tdr0z78k9PSzkBCP85GHULt1a3TWKPjs8xgffWKtUG+VjeOxRwhNnYa54DvISMd5z99R+/Vr9Fy+fVM0Vqwk+ODDUF2NNuIkHA/eD6qKsfA79LdmYe7ciYT0A5fNNFBat8X5yAMobdtirFlL8J77rF0rD5K3UtekFRX7H36H9pvzI5syU1FBaPIUjB+Xg8cT2U3zQNgvG4/tumuPms2oRXZ63L17N3PnzmXPnj0MGzaM3Nxc4uPjSUtLIxQKsWPHDjp16hRpCHWb5IsIMTExv9iH50ixcOFCrrzySoLBIG+99RajR48+1iL9b6Lr1razB2qwhJu9zR7e8vUAmAbiD1rLQg61F5AI+HxWAzXDvkoKYJiWf05zJlb8fsQ0LfNz7D5n9QWD1vq3RlBcroZHdB2kLvaLe7A6MQwIBBtd86loGjidR3Vqv8W2nfV4PKxcuTKyN0+XLl2Ii4ujoKCApKQkEhMTIwZtVVVJSkrCMAxEBJvNdsR8V34pX331FePGjUPTNKZOndrA4BslSpQjR4vvgV1bW0t+fn5kyt7v9xMTE0N8fDypqakkJyejadaOd3V+NAsXLiQ/P58zzjiDDvvsZ3ws+M9//sMjjzxCTk4Ozz33HB07djzWIkWJ8qujxXd6jI+PjzjVeb3eiPeupmnouk5lZSWapmG323E6ndjtduLi4tizZ89h7Z7YkowdO5ZTTjkFXddJrFuyECVKlCPKMTkdpA7ZZ7lBfSPooQ2EUaJE+TVxTJVRlChRotRx1HZ6jBIlSpSDEVVGUaJEOS6IKqMoUaIcF0SVUZQoUY4LosooSpQoxwVRZRQlSpTjgqgyihIlynFBVBlFiRLluCCqjKJEiXJc0OJr044cdY7ikU0jGg3p0YWKkKAq0Mal7t3YJkqU/2WO5n4gzeC/SBmFj8k2BL8JflPYEzQpCwqlASGv1iCvVtjhNXCHhKoQXJht59k+R3dPlihRjndMEdbnbWTRD0tx17pplZVJ31496d61S+RwjGPRZo5LZWQIlAaE0oDJroBQHjApDQhlQaHQa7LRI2z3mbhDgi6ydy9zqes1AaawJ00DFBQluvwuShQU8Hi9vDxtOm/MnI3Pt3czf4fdzsiTT+Kvf/wDnXI7HJOXdwspIwl/9jVJ7dW3XkOoCArlIUvBrK8xUVX4fQcHRX5h/HIvlUGT0gD4dak3SgvvSRqpLWXvCKze+U6CgtrwQpQo/9MYhsHkqa/z8tTX0Ww2bLa9J9oYInw+7xsqKiuZ+uKzJMTHH3X5WqxnVBOCipBBVUgoDUBZ0KTIJ2yoNdlQq7PLBwEzPOQyhEAITkjRuKadDY8Oq8sN0MIHyNXbWiSqVqJEaR55mzbzzpyPiJzLiLVVTygUQgCHw86ylat5b85HXHvV5QdLqkVoEWVkCjyzNci0fJ3igIlhsv/Z3g3OplNAETQVVFRQTFAVFFWJxBPF+vpwtFFUcUVpjPo2kbo9/YFf9UNTtqecktLdZKSl4Q8ECfgD2B12Tho6BEVV+H7JMhR0lq9a/StSRijk1QqFtaaVg8IhN0oTK1CDb6j3ndIMi1rUUvTfTzAY5OeffyYUCuFwOBrsjW4YBsFgEMMw6NOnD/GHMbRQAGP1OiQ/H+3Uk5GEBAgfUv1rJRjU6dGlC/964B6WrfyJp154mZOHD+OxB+4B4J5/PsYHH35MRUXlMZGvxYZpqgKov+oXTZSjgNvtZtKkSVRVVbF27Vp27NiBpmmYpklGRgYDBw5EURQee+wxunXr1uR0pXgXoZv/grkuD/tDd2P/48Tw8de/XkzD5IJzzuLnZYuxqS66dO1Fu7a5PPPY4/Tt34dhgwfx7pwPCR3ktJKW5LicTTtSHP1Ha29fX47KW/bo5HIsSUtL47XXXgPg3//+N1deeSWhUAiAW2+9lbvuuqtZ6ZpbdyBl5aAomEtXQjCI4nAcMbmPR+Lj47A7Yti0bhk5KTs5t18FsbZyvl27FZ/PQ5vu/VAVFbfbTcnu3bTKyjqq8v2qldHRGqbtVQl1rgUt9441pC43QYOw28KvWR3tpU+fPrRq1YqioiIcDgcDBw5sdlpq+xwkMwMpr0A7oR/icPzqazEzM4O5c2bw5zHroWYZmmriDyqM+6NBQbA9d03bhNPppKKikq3b86PK6L8RBYV1boN3inTaxsClbewk2Frm0Z6WH+KrMp3u8Qq3dXaSYv+1N6G9KIoSObTBZrP9ogMblHZtcT78D2TbdrQLzgaOewflX0xaSjqXDi0guHs+ue0dgIIego35KoHA51zYJ521WztQXlnFxs2bOWnYkKMq369aGTX+YAmFPmFmoY6BcEErG30StQYhvtujM3+PQadYlfGt7dgivk1CZQhmFAapCglXtHHQJV7h8c0BZmwNgF2hXYzGmZktU7ULy3Xe2RakT7qNGzvwP6WMYO+JMs0+R0JAFKtvqZ06Ak4dcQSlO75xulxU6+2oLktk3Q4fyQlCRY2Q00olt9codiYOxmFbiNcXYsGiH7jkwgtITEg4avL9qpVR44+rNcx5cKMPX0jwGa79lNHjmwN8XKyTHatwVqZGqkMJD48Ufq7W+cf6AH5TGJ1howuapRRsCnF2FZfWSLZHAFVVQFNQNSW63K45hB1jf+29oAOxa9dO/v19HH+9bhqZ/rcR30ZsjiTU7MsxMi6nSysvnToVsm59HstWrmLlqjWMOvmkoybfr1oZHYwMp0LnOI2fqwzWu40G1ypCQl6tCYqwKwCbak2GpdrCjzCsd5t4dKFTvEqGUwUU7uziZHCKRiunxrCUQy/mbS5Rd4XmI9U1GJ99jQSC2MacCq0yEWB3SQkejwfTNAkGgxQXF9O9e3dycnKoqKjgs88+Y8uWLbRr144xY8bQunXrSJrl5eVUV1cDEAqFKC4uJi4ujkGDBqGqKiUlJXi9XkzTJBAIUFhYSKdOnejatWskrt1ubzDk1HWdpKQkkpKSKC4uRtd1bDZb5JrdbqdNmzaHPUz98LMvKCsvxZlxKhI/BiWwk5CWgKmlg27QulUsJwzoT17eRgLBIK9Of5Phw4bgOEpHzbeMMhIJN9zDaZB14Y+oII1ecaowNEXl5yqdDbVmvfAKq6sMKoJhN1VT+KxUZ1hqXVUprKs1QDfpFGsjw2GVr7VL5cq2jnAqYvlqKkQUWH0XO69hLfR1qSqxB+hFWQdYWnG84YXBLhViNQXnATd9kfDww+rzhUzwGFZ9xtsUbIqlHA+8eYHSiNffge6d9Z3Uu1andj26SUAs+eK08Azf3ko45kith9Bf7sVYuRocNvTZ7xAz5VmUdm2Z++FcPv/sc9asWUN1dTVer5eZM2dSUlLC//3f/xEIBFi/fj1lZWX07NmT119/nSFDLHvKp59+yrvvvsumTZvYs2cP1dXVXHzxxUyfPh2A6dOns2DBAtavX4/P56O8vJznnnuOrl278vHHHzN16lTy8/MByyYmIrRp04bbb7+ds88+m2eeeYb58+dTWlqKYRhkZWVx2mmn8fjjj0cUVFNY+MNipk1/k8vHjyMh3oUpII5cwACxZidNU+HsM8/ko08+xVPrYcVPq/n3ux9w9eXjw5VIi97LFtnPSBRrZTBiPY9N+SBgGlZDNsVKpKlxG00v3L5kP6Vk1Wq/JBsIVAaEbZ697t0rqg2qQ0KvJA1UhUV7DOoUW8iEAq/V8rvFqySHbTZfl+n8ea2fJ7YEKA9YD5YCfFGq86ef/XxeGsKtCy9tCzJ+mZcx33sZv8zLGwVBq67qoSgKVSFhyo4g45f5GPODh3E/enmrMHjgJX9YovsN4d9FQa5f5eXsJR7OWuzl5tV+5u4KYaKE36QKeW6Tu9YFuHtDgNU1Rj1FBN+W69y+1sf/bfDjMxrKNWNniD+s8fGfolB4BlHY6jG4f4Ofi370MuZ7Dxf/6OW+vABrawxQFGvt8nGA/uoMpKQE17vTcfz9dszvlhB6bRYAE2+ayOzZsxk+fDh79uzB5/OxatUqHnzwQe68807mz5/P7NmzSUlJYf369TzxxBMR94KrrrqK999/nwsvvJDy8nJCoRCBQADTNHE6nfztb39j5syZ9OjRg/LyckuWsB/Pb3/7W+bMmcMZZ5zBzp07KSwspLi4mDvuuIPx48eTkJDA008/zT333MPu3bvJysri1Vdf5amnnjosRVRWvocnnnuR+IR4Ths1Ek3TEDEtJSRmJJxhGHTp1JET+vfHME2CoRAz3n6Hrdt3WAFa+F62SM9IRaFrgsbgNMGuNq0EIRP6Jqo4FIi3KQxK13D8AlWpC3SNb8x4Y73PuycooIHbEDbUGnSMUxFgTY2JApydaac8EGKLx6TQJ+TEqJQGTYr9JmgKHWP3CvhdhcFzG3x0SbJxQSs7GU6r3AvKDZ7P87O11sHz20J8tisYyR9T4euyELGawrg2e7vCPkO47ecAbxUG0XUBzeq9fFOq47IrB1BGCj7D5O71ASZvDxEImSiaZeNaWqozuzDEnzsbPNDdiaZAwFR4uzBIgdskxabQL9EZSWny9iD/yQ9i0xTOyrQzIs16RDy6MG17kIXFBun9XKgo5HsNrv/Jz4LdOqoGMXYFX7XJl8UhPi2x8d6QWNrHHvv9+8yCnZgLFmF/4kGUju1hzVqw2zCWr6xbIIDL5aJNmzaANVM3adIkHn30UU4//XQA+vfvT79+/Zg/fz7Lli0jLy+PPn36oKoqqqrSrl27SH71h0+KopCSkkL79u33k0tVVdLT0/nXv/7Fhg0bWLp0KaZp8tNPP3HxxRdHwmmaRkZGBlOmTGHw4MGHXf5/vz+Xtes2cNP1E+jRvVtEkR4Im03jrNFnsGrVahRVYfOWrcx+533+ccdtLX7cfAsoI0FT4P5uTu7v5jrsuABJdlg2Mu4ISdNY31KhjUsjN05je63J5lqBLCj2mayp1om3qVzc2sb8Mp2fakyWVxrkxKgU+0x2eE1iHQo9ElXqeln28ILefQ3LNlUBu8onpSFiNZVbOjm5MNvOkkqDZ7YE2OMzmbkzyHmtbMRoVsSntwaYnh8EBc5ra+fmDg7ibQqzd4aYXRQEc//SvLA9xHNbggBc0cHOH3KdhEx4akuAj3bpPLopQLsYhZs6OOger9AzSaPAbbK6xkAXsCmWwllaaYBNQQe+LNMjymhzrck2n+CIhYHJloL5YJfOgt0hMmNVpg2I5aQ0lU21Jk9tDdI/USMnpuVsZ4eD8e5HaOePQe3R1fp72w5LJr+/gSnbDO9FU2eXOf/88yNpuFwu4uKsZ7KkpCTSy6njYLN7IhJJ+0C0atWKP/7xj0yYMIFgMMikSZO47LLL6N27N4FAgFdeeYXbb789MjQ8HDZt2cacjz+hd6+eXDF+3CHDmwb079uXvn37kJPTlqXLlvHOnLmMH3sBXTt3Puz8D4cWUEbWuPfbPTobawWtiQ+iKZDsEM7NtBEU+E+RjvYLnmFToFuCwqnpNhprENkuhU5xCturhC0ey4i902+ypkbom6QwLEWjXazK8jKDtW6Ti4Aiv1DuM8mJ1+i9zwxco0UVhVibwvQTYhjX2g4Ip2fY2Og2eXN7kG0eoSRgkhurUh4QXssPgcDwNI3pA2JJc1iN+pQ0G3uCJu/kBxskXx40mbzdGsKd0Upjav/YiGLrlahy0VIvi3aHmFYQ4sJsB5lOhQHJGp/vCrGm2qDYZ9AuVuOnaoM9IaF7gkppUFhasdewv8FjsNNj0jle4YQkq9yFPqt31z5O5bxW1t5RQ1NUZp6goSnhJUHHGNlTgVlSgn38ROtVZ5rIkhUoqgpZGTR20wYMGEBCvWltEYkonEAgQCAQOKJyjhs3jtmzZ/Pxxx9TVVXF448/zowZM3jzzTfx+/1cf/31zUr3vTkfkpqayhWXjicxIQHjIEoRwDB1MjMz6NalC/MXfse4sRfx1HMvMvvdD7jvb3c0S4am0iLDNEPgtfwgMwv0+rt/HBTThG4JKsOSNap1+P1PHtRfoI1ME67pYA8rowOTbFfoEKsBOgU+wRD4ucZEQiaDk52AwuAUjfcLg/xco2OKk21eA0xo5VKtLW2bhNDapTA6w1KMdaqxbYxl3K3RTXwGgMLyKoPSoAkIN3ZwRBRRHZbbQMN6WVJhUBKw4kxs7wwrIitOukPh0jZ2FlUY/FhpsNNnkunUGJ1h49mtKnm1JiUBoV0sLKow8OhwfisHX5eFWO822Vhr0C1eY221CbpJ90SHJTfQJd4a5v5UafC71X5+n+ukWxw4tbp6Ofa9ItlegNatM0qbbOuLPXsw16y3TG/9ejcar3379rhch9uzbz52u5277rqLr776Cr/fzyeffMKUKVOYOXMm//jHP0hJSTnsNNdtyGPV2nVceP65dOvSuclbL4sIw4YM5pPPv6CqqppOHXNZ+P1iKiorSW2GHE2lZQb0ioKggiiYNO0DCqKEP1YiTY7bWHpmxHra+E3olaCCDQq8Jjt9JssrdVDg1HTr7T88VcXuUFldbZLvM9nutWbZesXXb3D7/7pPhaBEqlqJrCbTVCU8mbX3NhT4DGp1cNpVcmP3xtlbBnW/8uzwWsos1qGSE7N36Fj36ZukEaMChlDkt5TWwGSVNDvoIVhZZb0tV1QZ2FXhglYq2S6VnT6TtTXha9UGaConpmjU2bzGt7ZzU0cHJsIrWwIMme/m0uU+ZhcFCRj1Z96OHeoJfbFde2VkQsFYuhKprUVxOrCddkqj8ZKTkyPe3keLk046iRtuuAGAiooKbr31VkaMGMGZZ57ZrPRmvfMeLpeLU085hfS0NAzDOHQkLEN2+/btSEpKxOf3Exvjorh4F0uXr2yWHE2lZWtbqd8kDv5hn99pYrxDpXcoeiWoxNoUivwmuwPC0ioTu12hb3gI1j9RI9kO270mJX6TLR5rr6W+yQeoul/UCWgoddiHsklI+D+bUrcPXcOIe73H1YiiTrSpDEq1gQLfV+jkew3y3AbZTpURaTYGpqigC+vcBuVB07IlaQqnZ9gieaY6FJ7s7WT2oFhGZ9tBgbk7Q1y73Mef1/oJybFfB//j8uVMmvxyxGZjfvsd1HpQOuVCm9aNxquzDx1NFEVh4sSJdOzYEbC2T+nZs2ez0tq1u4yVazaSnJRMXGzsYRmfTdMkMSGBpKREctq1xRcI4PX52FlU3CxZmsqxn+o4xvRK1Eh2WLaaVdU6271Cz0Q1MhuWaFcZnKQR0oWfqg3W1ZigwPCUvX5HRwYJ56fgUKE2JFSFpMG1xkh3qDhUqAkKlcH9bQLbPSZBQ0Axyay3MP3cTA1EWFtjsrFWWOc2GRTu+ZyaZgObwtIKgx8qTKqCQm6sQo94q+dV52WUYFMY38bOR8Ni+XFkHL9p6yAEvLYjyHvFIY71MG3x4sX8+OOPlo2oogpzXR4SDKKdMhw1u/GFoM1ebvIL6d27NxMmTIj8/fjjj1NRUXHY6birikm1bcduExRNO7z+qWLDFBuDBw4iITaW7TvyQVEJBBufhTsS/KqVUVOaQWuXSmuXCiZ8WKJTExQGJdnCntUWp4SN4B+X6BT7TFKdyoGnrI/A89s9QSXJbk3lf7Q7FBmy1iXuN/bP6MRUzfJ3EuHfRQ0fGF2EuSU6hm65W7SN2Wt0H5Rsw25XyPcZLNxjIDqMCDt39kvUSHeqrKkx+bY8CCIMSdGIte0dOvoMy4ETwKlavckX+7o4IUklqAvr3Qc3lh4Nli1fRmZmJgpgrlmHbNmOmpSIOrDf3kDBIIT0Fpu6PlzFFgqFIn5Ea9asYdKkSU3IpOFT0cH2MZMnLGZgxrcsW7EaRz0v74NKIyqqfytKzfeMHnUi3y9Zid9vEOuykRDfsja0X7UyauojMDhZAwXmlRkIQr8k1aqYcAJDUzRQFL7dY2CY0CP+wJ7Tv3yYJvRPUOkXHiK+UagzaVuQ0oDl53TPBj+f7ArtN03VIVbhsraWn9JbhSGe3BJgd8AaVj60McCHu0KgwJVtHeHpdoucGMtAXxmCGTuDoMHIDA0QkuxwUqrGTp/w4S4DBEal2cJDR2vG9LHNAS760cviCpNaXQgKrK812BUAVIVsZ0Pj+9HG7Xbz+WefRxq2uS4Ps6QM2uWg9t9rvDbXrIcly0BtmUWFh6Pkvv/+e7744gseeuihiNzTpk1j1apVB40nyt5Xlrh/wl76AgnxCmd3X8437/2Vz+YtRFVVNO0g89uKhhrcRmL+VaQVX8WXHzzN6rXbuWB4LDNu2cwFXT8D093kshwu/7Nr0+ozKNm6jcGQSbJTpUdC+KEM37UOsYrlj+SxZtJ6J2rE72PQMQUwLc/z+m9CUyxXcOMAbdIMe4pL5K1mPVEP93CywW1QVGvypzU+/rFBQTchaAgd4lW21JrhfKDOWH1fNydbak0+3aVz588BHtwYBAR30Er8inZ2bunYcI1RmkNhUJLGD7t1CmsNuiRotHVaNiVVgVHpGnN3htjmNkl0qvRO2ttYK0PCnBKd1eU635TpdIvXSLTBmmoTT1AYnqkxtrWdYzlM+/LLL9mzZ481RAOkpBQRE7VLR9ROuZFw5vKfUM88lV+iOA/W+9F1HY/Hc8g0vF4v//znPxk3bhx/+tOfWLlyJe+88w75+fk8//zzTJkypXHPa38BUvpvCObDnk+RYDmi2EhOMhnb9ydun3QvO/IncOWlY4mPjcMwD2zMVsSHGtwBZjUDM74ifXg6vxmwkYRYLxL8FLzbIL7fAeP+Un7VPaOmIQxJsdEzSaN7so0R6XZrhq3e9UynyjmtbHRN1OicpHJSqrZfxbVyQudkle7xKi51b48g26nRLUmjR6KCts/5ba2cCl2SVLonKNT3EhiaYuOtgbGc28ZOikMlZEKbWIWn+rqY1C+GQSkaXeOUsIe61dhTHSpTB8TwUC8nXRKtngsCA1JsPNnXxQt9Y0h17KsYFE5O0+idapXt/Gw7Sba9ggxLUemdotE9SePMTI2OsXvjpzoUZg2M4b7eLrrHqxT4TFZWWUPYmzo5eLV/DFkt2DM61EyX1+vl1VdfBSAxKQkACQRQbTbUfr33SuXzITXusM/RXlkPd8h2MDcAt9vN1q1bD5nGjBkzqKmp4dprr8Vms/H73/+e1NRUAGbNmsW3337baFyl8kvY9jdk5yQI7ERRbFZPKaRyQhc/VwzfydTX3+Clya/i9XkPWD4RE9PeDlHjELFxcrcirhq+mnhXANFtSKgSapa0WF832jNCoWeCyg8nxyFieUzv2+uJURWe6O0kYLgAk1ht34Yg/Ladg3Ft7GgKxGl10+twfXsbV7W1oSoQv09t39jBztU5NjQgztZQAY5KtzEkRaM8KARNIcmukOFQMUUYNjwWVVHCcuz15cl2qfxfNxc35zqoDlmLbVPsKkn2cIj93H6E32TbOTPTjongUhUc6t4p+cEpNr4/2YaJtawnrp6SRax6u7+7iz91dFCtW/apeJtCmiPskX6EURQl0ohM0zxob+TFF19k3rx5AMTGxlhf2v+/vTOPr7K68//7We6afYEEkhASICGQQMIadmRTQH2J6NStWrW2Wlvnp9Vpf9M6taO2M44Vp9bqOC51F5daFBUUZAtLCEsgYQsJgQAh+57c/Tnzx7255GaBAAkCPm9eZHvOc57znHufz/2ec77f7zF4veTHjPJ3g2ftJuTYWAgKOh3MCGf0mG5vS0fCw8P9P4tO1vHhw4fJy8s7Y31FRUW8+OKLPPHEE0RFRQEwe/ZsbrrpJl555RUcDgdPP/0006dPx2KxdDlfWEYg1CDQ7HS0MQQgaRJ3zqwj50Ao73/6ORMnZDFn9mx/jFzHe1IU2ds3koTQZN/QTwJJIAkFUfYMBGchQsYhSX0rH/0TKEv7i9HuZeL9ftrn5OLMI/TqeRAgSxJhBplwo+wTos6BqwKL7A2KDTcoGLu4FkuYZIlwg0yIKiH7LCAhBGYFwowSIQbJF4/awYGx/RyD3I23ssCqSAyxyAwPUhjgC9STJYlQg3eYKPewU26UUSY5SCHJ6p3Ybhei7oJWDbJEqMHbDrPi9fMCgSTar+U9FqR0mJQgMHI/wigz1OptZ6xJxtDuKyY6O2tcGC6XC7vdDoDNZqOtra3bMs8//zx/+MMfTguKT2SUCZkQZEWUVyDcbjybt+P5/Cvk7HFd6mlqauryt44C09lnJzEx0Z9a5MiRI9TXe3fYcDgcvPrqq8THx/vLdrbq2traePzxx7FYLAExaQC//OUvMfpyc2/atInXXnut7cZIcwAAGBlJREFUm54B1BAkDF16W8I7DWC2uPnZgpPcMH8sGRlZIIRf3L0ipCBLCiX7v8XlaPH7wnlfZV8/SjI4jiIKFkLtqu7bcQH0i2Uk0eGTUQhE+yeOBEIS/h5qT5PRX/RK8rq9fGdvp3PhdPkulnCvTf/elDuXdkl+n6+z1dG+ZN99efz3cLZhjNRjBeeG2+3mxIkT2Gw23n33Xaqrq/3H3njjDQYMGIDVasXlclFQUMA777zD+vXrAyybdhFRFs1D3XkLzj+/jLz8U0RDE4af30t1dAQlW7eSm5vrP2f9+vXk5OSQlpaG2+0mJyeHwsJC//EVK1aQmJhIfHw8YWFhZGRkMHHiRFasWMHevXt58sknmTt3Lu+99x4Wi4VbbrmFZ599FoCcnBwWLlyIJEnU1NSwbNkyPv74Y1JTU9myZQujR48mLCyMmpoa8vPz/YGtmqbx1FNPYTabmTt3LgkJCafnkNpKQNjpsdM9MtkprVS59rBnTz6TJozHYjH5+7iqpoZPPluFqfpNxiy2eYXHn/XCV6fwZq+QrGlI5vjur3MBSKIfHCoEgr1NGltqvX47lQ5Bld0bdlDl0GhwC2weEB5fPgwZ0CAlVGbVVCtNLkHm2hakCwgHERrcmWjgzXFdTVqdy4fa2lp+9atfUVdX509S1nGoZrVa/VsX2Ww2nE4nqqoiyzJCCDweD4899hjXXHMNAELT0NZuxLN2A8qMKSiLF/Dsn/7Et2vXBlg7QghUVWXp0qVUVlayadMmPB5PgAhbLBbuv/9+f935+fk8+uij5Obm0tbWRkxMDPPnz+eFF17gyy+/5KWXXsJsNiNJEqGhoYDXcmppafFH/wP85je/YebMmbz22mt8+OGHAf3R3ob09HR++9vf+od0ouQROL4MIRvpab8YSRK0OQQ/WDaKNiWVjLQRyIpC6bFjlBw5QlWdjWfvPM4dV9Uj3BAgbJoTYRyIPPgnkPAvoPT99tf9IkbdoQlBhUNwwuYVpVon1Dq9Hs2HWjyUtGrEmmQ+mmil3iXIWtPsS53RadjUyb26/Wj7J7Hwef0KAXcNMfI3XYwue9rfoj1ZY2c7fr71d340ujve+W/19fXk5eXR1NREYmIiY8eO9Q+zzrXN3dXf0zFRuxKKHkA4Tvr+7vugl2TA664hAFnRePjtiew8FovJ4PU0D7JakWSZukYHv1rwLbNGHfdOWEsCSQjQXBA6GZKeRgq/yldn33PRxKgnPELQ5hG0uMGpCQaZJZwarK7ycKhF40Czh2qHoMrp9UhucQua3MIb+yQkbzqN9qGf1GGOQgjuTDTqlpHO9wIBSPZSREshNKyD1gIkxzE0x3Hw2L1ZJH0DrvqkVXiCpqAqGqqi+i0yt1Cw1LyMoewxrwABQjZBzA+Rh/4eYRrcr44a3/lqmiJBiCqd3tpHCAwqLB3cnvbK+yngFtDqgSNtHopbNE7aBHUuQY1DUOnUOGHzBoE2uaDNI9A8Avd37wCso3PxMCchmZMg2peHyXEKqfYzaNiAsB30KlboJCLjpvU8zAr6GUJxQP23IJmQohYjxdyGUILp720MvnPLqCvtzen9Tds9glqnV5waXYJ6t6DaIYg0StwQ29cxZDo6lxmaHVyV3p8NMSCfLaxDgLvZOxzrh7mhnrgExaivOO0v418h0tHRuWS54jywvQn5O/ozSb1b4tfR0flOuYItIx0dncuJK84y0tHRuTzRxUhHR+eSQBejPseXF+Q7r0NH5/JCF6O+xhdIemH0bYCpjs7lwHfu9HjF4YtYzykopuhEFRaj4ayndK1CwuHyEBFiZf74VKymruEEOjpXGrpl1A98snE3/++vn1BR33w6B8+5/AdabHZe+HQdT7/bnqpBH7bpXNnollE/8FXuPu5dOIWfXd/zvly9YVp6Mo+/vhK7043ZqL9UOlc2umXUD3iEYNroZN9v5z8ZPTIhlkHRYbg87rMX1tG5zNHFqB8ITPtwYZPRRkVBDqjPl8FfR+cKQ7f9+4nu5MLpdmNz9G4jPAmwOV043R4amm14NK8IWc0m1C45uHV0Ln90MbpIHCir4L+Wr8Hl0QixmHu1sZ9H09h/7BS/e+tLjKpCQ2sbYUEWfn3LAhJjIi9Cq3V0Lh66GF0EBILnPl6LKss8ctMcLCbjWcVIAuwuN//5wTc8tGQWIRYLTTYb//n+17zwjw08+9MlF6fxOjoXCV2M+omOszxtdid2p5vf37WY5EHRva7D5nARbDUxPG6A39fokZvm8sI/NvRxa3V0vnt0MeonOto9QoDJYPAvz3dnE/W0SYkQgXt4hQVbMKhXypzR2TIH9m9mQZ1LC12M+ojPtxXw0YbdhAdb2X+sgmUff0tkSBAgcLk1CkrLeeLNr7Cajd2uhrk1QXObjRumjWXJdN/2waJrNiYhBD1sl9YD5/lAn/G0M2fjFMLruxlQhfDlKe9wTnu5zj+fsVGCc9jyqZvTz7SDUi+7qnMxcRG23fo+oItRH1B4tJw/vLuaO+ZO5LZ5E/j5nz/ijvmTyBgahxCCFruDJ9/+kp9eN53BUWFoWlc1kYAvcvfx9HurGTkkhrQhsZyPf5LTYWfX5vU0N9aTPi6bQYlJPZZ1u1yU7NtDedlRHHYbkTGxpKRnER4VDRI01FVTXLiXhpoqJFkmLCKSYaPHEhE9EICG2hpKDxZQXXESoQkiYwaRmjGO0Ajv5LqttYXyoyXEJAwhJDSiy/1IkkRN5Ska66pJSErBaDZ3etC923SfKitFCMHgoclIkoSmeairrKC+thqP240ALEFBxAxOwBIUmCZVCEFZ8UEkSWbI8FQkwON2cfLYEWytLcQnpxAUHOJ/EZrq6ygvK8Xe2oLJYiEmbggRA2IC3DUkoOLEMeqrK4lPTiEkLBydC0cXoz6grLKejOTB3H/9DBRZxmhQiQkPJjbS+yZvtTsxGYwMigxlUGRoj/Xct3gquw6XcbSyzitG52EBfPvpct7763/hdrlInziFh//4ly4PKIDLYWf5y8+Rs+ozWlqawAOKQWHk2Aks/fEvaGttYeU7/0vJ/r24nS5vpIqiMmL0WG6890HaWlpYtfxNjhwswOFwAKAaDIzKmszSH/+c4aPHsmPDN7z+zBMsvv1ebr7vIUSnHb00zcP7Lz5D/paNPPD4fzBh1vwutkVzQz0vPP4wimrgiVfep+rkcVZ/+BZFBbupKj+B2+UEJIJDw0gaOYrsOYuYevW1yLICQG3lKV55+jcgSfz7/75P5cnjfPHu6xTmbaahrpZbH/wXrvmnH+J02Nmw8hO2fPMlxw4fwO1woKgG4oelMH7GHBbcfDvWIO/reer4UTau/ITjR4pJHjmaRbfdg9liPefXSicQXYz6AE0IBkWFoXTYtrir8dM7Z8WwIMsFhaHt352Lx+3GaDJTtHc329etZta1S7uU++KDv7Hqw7dRVBWDakAo3ovu25VL+b8dweN201RfhyQryKri2xRR4uDeXfzlicfwuF20NjUiybJv00QFIQQFuZuoqSjnX//8OiaTGbfLRX7OOuYvvY3wyMDJ+9KD+zmUv5PW5ka2rvmSzKmzUQ2BgcUH83dy7PBBRqRnoaoG9u/YxvqVnxAdG0dKRhbW4BBcTgfVJ0+we/MG9u3YRl11Bdff+VMA2pqbaKyrxWA0UbB9Gx++soySfXsJi4xi0JAkIgcMxONx89ZzT7Lhi38QFBJC5pQZRMcMpqaqgkN7dvLh/zxH2eED/OjR3xEaEUl9VQWyopI0Mh1ZlmhuqNPFqA/QxagvkAInmb9LMiZNY29uDpIMTruDvA1rmDx3YcDDUn60hM2rPkdSZN9urAJVMeDxuFENRprr6xFoqKpK5MBYHHY7LY31yIqCwWigtakBCVCNRiKiB2Jva6WtuQlJUTCYzJwqK2HN39/n6h/cSeKIkZwoLaYofyeT5lwd0NZ9O7dSX1eN0Wjm4J4dNNbVEBUzKKBM7tov0TSN7LneXVuzZswhPHogqZnjCQ6L8FtS9tYWPn/3NVYtf5NVy98ibdxkRqRnIskSqkHF1trMJ6+9wMkjh1lw0+1Mv/p6ktLSMZrMfPrGX/n2s49JGpXBPb/8N4aNGuO/flnxId545gm2rv2KmISh/OD+h4kdksihgl14XC7MweGERfZ+hVSnZ66UZZlLjgubyuywocA5WkmT5y4kMjoWzaNhMBgpKthFyf6CgDIF2zdTcfwoqqLidrlJnzSNJfc+CLIMQiDJEopi4Lo7fsIjz7zEQ08tIyVzgnf7ZyGQJBlZUVl86908+sxLPPTUfzMyayIetxskkBWVkgMFhIZHMiIjE0dbK0UFuwPuxdbSzKH8nZiMZkZkZNJYU83ebZsC7r+28hSH9+UTETWA1LETAIgaGMuEWfMI6SBEAOagYJb86AEyp8yktrqSQ3t2+mqSQJZpbWmirPggS+55kLsf+x2pmRMwmsyUFR9i48q/ExIWyW0PPBogRAjBkOGp3P7PvyY4NIz1Kz+m8mQZkQMGMfvam5g4awFXXX8zRtPZtv7R6Q26GPULPW9L3Ds6rDh13CW3F4SGR3LVDTfj8biRZZm2lma2fP2533Jra21m06oVSLIMwjvPc/0d95I6djyqogICTdMYGBfPtT/8MfFJw0kdO4Grrr3JP9IUmkZM/BCW3P0gcUnDScuayMzFN2IwnnbmdDmdAGTPW4wlOITdm9dTV13pb2f5sVL279rOsNFjuebmO5FVlbwNawLuP3/bRuqqKkjNmkj8sBEB9+lyOWmoqaLmVDm1FadoaahHNRoZkZEFQH1Npb8mSQg8LhdZU2ZxzT/d6Z9PAjiwezunjpcyNns6oydkd3oZvO0YNmoME2bOo6G6ksK8rQBERA8kMSUNkz486zP0YVo/IDRBq93Z9cA5CpTHI2hqtZ2zmTVu2lWsW/ERtZXlqKqB3Zs3UFNRzsDB8ezbkcvxkiIURcbpdJKZPZPktAyOHCg83X4hCAmLRFVPvz1MFiuq0YDm8SCAkLAIVMPp4xZrMAajCbutzXev3m/D0tKJSxxG6eH9HDt8gMiBMQDs372dttZmxk2bTcrYcQxJGcmxwwc4fuQwCckjcLud7N+xDY/Hw+isyRiNJgCaG+vZvPpzDhfmU11+EpfTO3keHBpKTPwQGqprUFUVR5vt9P1oAoPJxJgpMzBbve4W7St1lSfKkBWVkPAIjhcfwt0hQ0J7t0uKQnBYBCBztGjfub0YOr1GF6N+ICo0iLe/yWXkkBhCLGYcLjeaEDhdbtweDU+380sCk8GAR9Nwedy4PW4+WLeTxhYbJlXppnzPxCUNZ9yMOaxa/iYGRaWlsY4tqz/nhrsfYNMXH6NpHiRJwmwykz1vEarBiKZpCN/T1z4f1MmbxuffJCGhdVoX6w7vcYPRxKQ5CyjZv5eta74ga9ps3G4XW79ZSXhEFOkTphAWGc2wtDF8XfgOhXmbSUgeQfnRUg4X7CF6UByZ02cBUF1+kjef+3d2b9lAaGQkCUkpDBmRgtvlorGmmsOF+dRXVyM07bRlKkkINKxBISSOGBXQNqFpuOx2FFlh6zdfsH3d6h6F3+VwoqpqL+5b53zRxagf+Mm10/n/r37GfX96j5T4AbjcGvtKy3nuo3UEWU3dxqVJCAyqyvZDxyivbWTl1kJKTtXy8I2zMaje4dO5mEjTrr6e3DVf0dRQixCQv3UjcUOTOVJ0AEmW0TwaQ1NGMX7m3B5q6H6ySgo40rv2pE+cSnBEBAfzd9DS2MCp46WUHzvC2CkzGRCXAMDEmfPYuPITDuzazvwbb6N43x6qysuYsfAGBsTGAbDizZfYsXEtYybP4K5HHycuMTngOkJorP7wbd5+/o8In2eo5LsVg8lE5ICBnW5GQlYVPEJjWPoY0jIn9bgQIeHNwpk17cIS5un0jC5GfY4gNSGGVx65laITVbg1DZvDRdHJamZnDmdgRDDdv98FZpOBoxU1ZAyLY/roYcRGhjI0Nsp3/Nw+kZNSRzF6Qjabv/kcRVWpOFHKBy89R1tjI4qs4hZupl1zHdZufJD6mkGJyaSOHUf+1k0U7NjKiZIiXE4no8Zl+1f5UsZkER0bx+HCfMqKD7F78wYUVSV73iIA2pqbyd+2CWtICDfd9wuvEAlAOu1WLUkyZmswyJJfMYVvnktWZAy+oV47siwTHh2D5nYTHTOYRbfe3e99odMzuhj1OV7RiA4LJjrM+6DbHC7+vmkP2aOSGBwVdsazB0ftIWtYPFNG9eA5fQ7hEHOX3ErexjVoHg92mw1bayuyrKB5PAyKTyR77qIeL9HdQp4mnc5bKdpNpPZwDt+/TrUAYLEGkT5+Cvk5G1n/2UfYWpqJHBDLqHGT/GWNJguT51zDp6/9hTV//4CD+duJGzqcEene0BiX047DbsdkthAeNcB7liQ6R5hQvG8PTrutwzCtQxsDbsjb+GGjMwgKDWXP1o2cLC0mLml4t31it7fhsLURFh51/uEoOmdEX027CGiad4Wqt29hl7tnnyVZljo99D0zNDWNMZOn43I6kSQJWfHOPXk0DzMWLSEkLKJD6U7pcTs1NjAmTgKhBZYXndUrsI0Z2TOIio3lwO48Sov2k5yWTsKwlICtncZmz8BosbJ1zRe0tTSROXUmoRFey9BkDSI0PILm+nr25G7ytSJwpTH321Xs3rwOuRdzbD4ZY2TmRCbMmEt52VGWv/wcdTVVXcpWlR/n1T8+zjv//R/YbK1nrVvn/NAto4uAJEk02+zUN7cy6CyWEYB6hqj849V1OFy9y4ltMJqYevV17Nm2EY/bjawouF1OBg1JZvyMOYGFOzqIC9HFWdxktmI0mrDZ2rxCJMsBQaeqweh1F8ArXJ31Mi4xmcSUNGorK5BliQmz5nkPtE/qIDF4aDLD0zPZt2MLQSHhjBo/2d82s8XK3CW38P6Lz/Lhy8uoqzzFxKsWYLYE0VhXw7a1q9iVsw6T2YpBNZ6e+xECTWg+Ie0622U0mlj644c4dfwYeRu+oerUSabMXciI9Cw8mkZh3hZ2blrD8eIiZi2+EUXRH5n+Qu/Zi4DVbGBobBS/fvUzHrh+JqHWrpkeBWAxGzhV18jeI+UEm024Nc1vjciSRH1rG89/so45Wam9vnZm9kxmLryRNZ++h8vpwGwJ4uqbb2dwp8nf6MFxxA8dxsE9O1BVo9fvqMPSfmzCUGISEjmUn4dqMDIyc1LAylJ80nBi4hIoyt+JajIxevyUDnfmLTdz0RLyN28gcmAMmVM7TgR7jweFhJE5ZQZ7czeRnDba7zPUfpl5S25BeNys/uhdVrz1Civfex1VMSAQhEVGs/i2ewgODeV/nvpXvyOi0WTEZDIjBBh62MNuYFwCv3hyGZ++8Vd25XzL8pefQ2jeNAKKrBAxMJal9/2ChT+4S3dw7Eck0Zv8pzpnZGVuIbkHSnnyR9f1WKaqvoW/fb2Vsqp6QrtJOysAgyqzcW8JcdHhDI2JQkMLSBfS6nAyNDaKe67JJjz4zM52Pk8awBs7lbf+G6oryhkyYiQTZszFYOy6MWTxvr0UbM8hJCyc7LmLCO4UjV68L5+C7VsIDg1j6vxrCQptt/K81ykuzGdvbg6hEZFMW3AdluAQhH9AJOF02Nm+4WvCIwcwenx2J8dQbx0NNVUU5G1h8NBhDEvL6HpHQqP00D7KDh+iqa4GWTUQFhFJYsoohgxPpamhjt1bNpDk+93tclK4YytCCLKmzj5jn7mcDkr2F3LyaDFOuw0kiaDgEBKGp5KUOvqM5+pcOLoY9QErtxWSd+gYv79r8RnLCeFNyt99lwvMRiOPvfIp09OHcW12Oi63J6CELEsYFOUcvLtFl0j5M5XtumJ3FncCX44igYR0xoREZ69b+H4/zxRK53Dd7sv1pp86CrxO36MP0/oASYKqhhY0ITptK9S1nMlw5i53OF2YDCqKLKMYL3R94Vxc9LoreZazJel0qTMK5NnrPmtLz+v57+1JveunDner0w/oYtQHxEeHs+PgMd5ds53ZmSnnta2ZLMGmwhK27D/KT6+bAbRnENTf/DrfD/RhWh+xfN0uPtu6F6vJiCJL57yPrCYENoeTa7PTuWX2eF2EdL536GLUh3g0X9zZefaoosgBCdp0dL5P6GKko6NzSaB/DOvo6FwS6GKko6NzSaCLkY6OziWBLkY6OjqXBLoY6ejoXBLoYqSjo3NJ4BcjfX1fR0fnYiM6fPWLkaS7G+no6FxkpA5m0P8BQCTHjeQO/rMAAAAASUVORK5CYII=;" vertex="1" parent="1">
          <mxGeometry x="50" y="240" width="209.35" height="100" as="geometry" />
        </mxCell>
      </root>
    </mxGraphModel>
  </diagram>
</mxfile>
